<mxfile host="app.diagrams.net" modified="2024-01-21T11:13:19.314Z" agent="Mozilla/5.0 (Windows NT 10.0; Win64; x64; rv:122.0) Gecko/20100101 Firefox/122.0" version="22.1.21" etag="lQ-9beOAFAoBWDyUVQd5" type="github">
  <diagram name="Page-1" id="5evSxmJeZW0yF1urnuXO">
    <mxGraphModel>
      <root>
        <mxCell id="0" />
        <mxCell id="1" parent="0" />
      </root>
    </mxGraphModel>
  </diagram>
</mxfile>
